<svg width="375" height="32" viewBox="0 0 375 32" fill="none" xmlns="http://www.w3.org/2000/svg">
<g style="mix-blend-mode:darken">
<path d="M0.500488 31L10.907 1.8618H19.7317L30.1798 31H20.8972L18.7327 24.2982H8.86732L6.61951 31H0.500488ZM10.574 19.3031H17.1093L13.9041 9.43773L10.574 19.3031ZM31.1106 31V10.187H39.2693V12.1018C40.2683 10.8114 41.8917 9.64586 44.8888 9.64586C47.9691 9.64586 50.0504 11.1028 50.7164 13.642C50.9662 14.5577 51.0078 15.4319 51.0078 17.0553V31H42.8491V16.5558C42.8491 15.8481 42.8491 15.3902 42.641 15.0572C42.4745 14.7659 42.1831 14.4745 41.5171 14.4745C40.3932 14.4745 39.8104 15.2237 39.519 16.1811C39.3109 16.8055 39.2693 17.5548 39.2693 18.1792V31H31.1106ZM66.7083 31V29.0852C65.8341 30.3756 64.294 31.5411 61.2969 31.5411C56.385 31.5411 52.8468 27.3369 52.8468 20.5935C52.8468 13.8501 56.385 9.64586 61.2969 9.64586C64.294 9.64586 65.8341 10.8114 66.7083 12.1018V1.8618H74.867V31H66.7083ZM64.2523 27.0455C65.2514 27.0455 66.0839 26.2546 66.5001 24.1733C66.6666 23.2576 66.7499 22.092 66.7499 20.5935C66.7499 19.1366 66.6666 17.9711 66.5001 17.0137C66.0839 14.9324 65.2514 14.1415 64.2523 14.1415C62.7538 14.1415 61.7132 15.8065 61.7132 20.5935C61.7132 25.4221 62.7538 27.0455 64.2523 27.0455ZM83.8745 31L94.281 1.8618H103.106L113.554 31H104.271L102.107 24.2982H92.2413L89.9935 31H83.8745ZM93.9479 19.3031H100.483L97.278 9.43773L93.9479 19.3031ZM114.485 31V10.187H122.643V12.1018C123.642 10.8114 125.266 9.64586 128.263 9.64586C131.343 9.64586 133.424 11.1028 134.09 13.642C134.34 14.5577 134.382 15.4319 134.382 17.0553V31H126.223V16.5558C126.223 15.8481 126.223 15.3902 126.015 15.0572C125.848 14.7659 125.557 14.4745 124.891 14.4745C123.767 14.4745 123.184 15.2237 122.893 16.1811C122.685 16.8055 122.643 17.5548 122.643 18.1792V31H114.485ZM150.082 31V29.0852C149.208 30.3756 147.668 31.5411 144.671 31.5411C139.759 31.5411 136.221 27.3369 136.221 20.5935C136.221 13.8501 139.759 9.64586 144.671 9.64586C147.668 9.64586 149.208 10.8114 150.082 12.1018V1.8618H158.241V31H150.082ZM147.626 27.0455C148.625 27.0455 149.458 26.2546 149.874 24.1733C150.041 23.2576 150.124 22.092 150.124 20.5935C150.124 19.1366 150.041 17.9711 149.874 17.0137C149.458 14.9324 148.625 14.1415 147.626 14.1415C146.128 14.1415 145.087 15.8065 145.087 20.5935C145.087 25.4221 146.128 27.0455 147.626 27.0455ZM167.248 31L177.655 1.8618H186.48L196.928 31H187.645L185.481 24.2982H175.615L173.367 31H167.248ZM177.322 19.3031H183.857L180.652 9.43773L177.322 19.3031ZM197.858 31V10.187H206.017V12.1018C207.016 10.8114 208.64 9.64586 211.637 9.64586C214.717 9.64586 216.798 11.1028 217.464 13.642C217.714 14.5577 217.756 15.4319 217.756 17.0553V31H209.597V16.5558C209.597 15.8481 209.597 15.3902 209.389 15.0572C209.222 14.7659 208.931 14.4745 208.265 14.4745C207.141 14.4745 206.558 15.2237 206.267 16.1811C206.059 16.8055 206.017 17.5548 206.017 18.1792V31H197.858ZM233.456 31V29.0852C232.582 30.3756 231.042 31.5411 228.045 31.5411C223.133 31.5411 219.595 27.3369 219.595 20.5935C219.595 13.8501 223.133 9.64586 228.045 9.64586C231.042 9.64586 232.582 10.8114 233.456 12.1018V1.8618H241.615V31H233.456ZM231 27.0455C231.999 27.0455 232.832 26.2546 233.248 24.1733C233.415 23.2576 233.498 22.092 233.498 20.5935C233.498 19.1366 233.415 17.9711 233.248 17.0137C232.832 14.9324 231.999 14.1415 231 14.1415C229.502 14.1415 228.461 15.8065 228.461 20.5935C228.461 25.4221 229.502 27.0455 231 27.0455ZM266.914 31.5411C259.755 31.5411 253.677 28.3776 253.136 20.4686H262.752C262.752 23.7154 263.335 26.7958 266.914 26.7958C269.204 26.7958 270.744 25.214 270.744 23.1743C270.744 21.1763 269.828 20.1772 267.247 19.7194L262.918 18.9285C256.092 17.7213 254.01 14.7242 254.01 10.6865C254.01 5.73301 258.589 1.32066 266.498 1.32066C273.408 1.32066 278.778 4.56749 279.402 11.5607H270.161C270.036 8.39708 269.37 6.06602 266.373 6.06602C264.125 6.06602 262.835 7.68944 262.835 9.3961C262.835 11.3109 263.917 12.0185 266.373 12.4764L271.16 13.3506C278.195 14.641 279.777 17.8878 279.777 21.4676C279.777 27.0039 275.323 31.5411 266.914 31.5411ZM280.725 14.6826V10.187H283.056V5.27513H291.215V10.187H294.295V14.6826H291.215V25.547C291.215 26.1714 291.506 26.5044 292.006 26.5044H294.295V31H289.092C284.388 31 283.056 29.1685 283.056 25.4637V14.6826H280.725ZM307.52 31V29.0852C306.521 30.3756 304.981 31.5411 301.984 31.5411C298.945 31.5411 296.78 30.1675 296.073 27.545C295.823 26.6709 295.781 25.7551 295.781 24.1317V10.187H303.94V24.6312C303.94 25.3389 303.94 25.7967 304.148 26.1298C304.315 26.4211 304.606 26.7125 305.272 26.7125C306.396 26.7125 306.979 25.9633 307.27 25.0059C307.478 24.3815 307.52 23.6322 307.52 23.0078V10.187H315.679V31H307.52ZM331.546 31V29.0852C330.671 30.3756 329.131 31.5411 326.134 31.5411C321.222 31.5411 317.684 27.3369 317.684 20.5935C317.684 13.8501 321.222 9.64586 326.134 9.64586C329.131 9.64586 330.671 10.8114 331.546 12.1018V1.8618H339.704V31H331.546ZM329.09 27.0455C330.089 27.0455 330.921 26.2546 331.337 24.1733C331.504 23.2576 331.587 22.092 331.587 20.5935C331.587 19.1366 331.504 17.9711 331.337 17.0137C330.921 14.9324 330.089 14.1415 329.09 14.1415C327.591 14.1415 326.55 15.8065 326.55 20.5935C326.55 25.4221 327.591 27.0455 329.09 27.0455ZM346.287 9.18797C343.54 9.18797 341.625 7.18993 341.625 4.69236C341.625 2.1948 343.54 0.196757 346.287 0.196757C349.035 0.196757 350.95 2.1948 350.95 4.69236C350.95 7.18993 349.035 9.18797 346.287 9.18797ZM342.166 31V10.187H350.325V31H342.166ZM363.473 31.5411C356.979 31.5411 352.276 27.0455 352.276 20.5935C352.276 14.1415 356.979 9.64586 363.473 9.64586C369.967 9.64586 374.67 14.1415 374.67 20.5935C374.67 27.0455 369.967 31.5411 363.473 31.5411ZM363.473 27.3785C364.972 27.3785 366.054 25.6302 366.054 20.5935C366.054 15.5568 364.972 13.8085 363.473 13.8085C361.975 13.8085 360.892 15.5568 360.892 20.5935C360.892 25.6302 361.975 27.3785 363.473 27.3785Z" fill="black"/>
</g>
</svg>
